<?xml version="1.0" encoding="utf-8"?>
<!-- Generator: Adobe Illustrator 19.1.1, SVG Export Plug-In . SVG Version: 6.00 Build 0)  -->
<svg version="1.1" id="Layer_1" xmlns="http://www.w3.org/2000/svg" xmlns:xlink="http://www.w3.org/1999/xlink" x="0px" y="0px"
	 viewBox="8 14 50 50" style="enable-background:new 8 14 50 50;" xml:space="preserve">
<style type="text/css">
	.st0{fill:#FF4E38;stroke:#B03B2D;stroke-width:2;stroke-miterlimit:10;}
	.st1{fill:#098DA0;}
	.st2{fill:#5DB6C2;}
	.st3{fill:#86C8D1;}
	.st4{fill:#FFFFFF;}
</style>
<path class="st0" d="M50.7,34.4c0,9.8-17.7,27.2-17.7,27.2S15.3,44.2,15.3,34.4S23.2,16.8,33,16.8S50.7,24.7,50.7,34.4z"/>
<g>
	<path class="st1" d="M-58.2,34c0,6.7-5.4,12.1-12.1,12.1S-82.4,40.7-82.4,34s5.4-12.1,12.1-12.1c0.4,0,0.7,0,1.1,0.1
		c-5.1,0.5-9,4.8-9,10c0,5.5,4.5,10,10,10c5.2,0,9.5-4,10-9C-58.2,33.3-58.2,33.6-58.2,34z"/>
	<path class="st2" d="M-63.4,23.5c4.6,2.6,6.1,8.5,3.5,13c-2.6,4.6-8.5,6.1-13,3.5c-4.6-2.6-6.1-8.5-3.5-13c0.1-0.3,0.3-0.5,0.5-0.7
		c-1.7,3.7-0.3,8,3.3,10.1c3.8,2.2,8.6,0.9,10.8-2.9c2-3.5,1-8-2.2-10.4C-63.9,23.2-63.7,23.3-63.4,23.5z"/>
	<path class="st3" d="M-61.6,29.5c0,4-3.2,7.2-7.2,7.2s-7.2-3.2-7.2-7.2s3.2-7.2,7.2-7.2c0.2,0,0.4,0,0.7,0c-3,0.3-5.4,2.9-5.4,6
		c0,3.3,2.7,6,6,6c3.1,0,5.7-2.4,6-5.4C-61.6,29.1-61.6,29.3-61.6,29.5z"/>
</g>
<g>
	<path d="M214.4-75.3l1.6,14c0.1,0.8-0.1,1.6-0.7,2.2c-0.6,0.6-1.3,0.9-2.1,0.9h-74.3c-0.9,0-1.6-0.3-2.1-0.9
		c-0.6-0.7-0.8-1.4-0.7-2.2l1.6-14H214.4z M210.3-112.8l3.8,34.6h-76.3l3.8-34.6c0.1-0.7,0.4-1.3,0.9-1.8c0.5-0.5,1.2-0.7,1.9-0.7
		H156v5.7c0,1.6,0.6,2.9,1.7,4c1.1,1.1,2.5,1.7,4,1.7s2.9-0.6,4-1.7c1.1-1.1,1.7-2.5,1.7-4v-5.7h17.1v5.7c0,1.6,0.6,2.9,1.7,4
		c1.1,1.1,2.5,1.7,4,1.7c1.6,0,2.9-0.6,4-1.7c1.1-1.1,1.7-2.5,1.7-4v-5.7h11.4c0.7,0,1.4,0.2,1.9,0.7
		C209.9-114.1,210.2-113.5,210.3-112.8z M193.1-121v11.4c0,0.8-0.3,1.4-0.8,2c-0.6,0.6-1.2,0.8-2,0.8c-0.8,0-1.4-0.3-2-0.8
		c-0.6-0.6-0.8-1.2-0.8-2V-121c0-3.2-1.1-5.8-3.3-8.1c-2.2-2.2-4.9-3.3-8.1-3.3c-3.2,0-5.8,1.1-8.1,3.3c-2.2,2.2-3.3,4.9-3.3,8.1
		v11.4c0,0.8-0.3,1.4-0.8,2c-0.6,0.6-1.2,0.8-2,0.8c-0.8,0-1.4-0.3-2-0.8c-0.6-0.6-0.8-1.2-0.8-2V-121c0-4.7,1.7-8.8,5-12.1
		c3.3-3.3,7.4-5,12.1-5s8.8,1.7,12.1,5C191.5-129.8,193.1-125.8,193.1-121z"/>
</g>
<g>
	<path class="st4" d="M40.7-69.7v2.1H28.2v-2.1l1.4-2.1h-1.4c-1.2,0-2.1-0.4-3-1.2c-0.8-0.8-1.2-1.8-1.2-3v-3.5l-0.7-0.7l0.3-1.4
		h5.2l0.3-1.4h10.5l0.3,2.1l-0.7,0.3v8.7L40.7-69.7z M29.6-74.6v-4.2h-2.8v2.8c0,0.4,0.1,0.7,0.4,1c0.3,0.3,0.6,0.4,1,0.4H29.6z"/>
</g>
<g>
	<path class="st4" d="M32.4,26.6V33c0,0.4-0.1,0.8-0.4,1.1c-0.2,0.3-0.5,0.6-0.9,0.7v7.8c0,0.3-0.1,0.6-0.4,0.9
		c-0.3,0.3-0.6,0.4-0.9,0.4h-1.3c-0.3,0-0.6-0.1-0.9-0.4c-0.3-0.3-0.4-0.6-0.4-0.9v-7.8c-0.4-0.1-0.7-0.4-0.9-0.7
		C26.1,33.8,26,33.4,26,33v-6.4c0-0.2,0.1-0.3,0.2-0.4c0.1-0.1,0.3-0.2,0.4-0.2c0.2,0,0.3,0.1,0.4,0.2c0.1,0.1,0.2,0.3,0.2,0.4v4.1
		c0,0.2,0.1,0.3,0.2,0.4s0.3,0.2,0.4,0.2c0.2,0,0.3-0.1,0.4-0.2c0.1-0.1,0.2-0.3,0.2-0.4v-4.1c0-0.2,0.1-0.3,0.2-0.4
		c0.1-0.1,0.3-0.2,0.4-0.2c0.2,0,0.3,0.1,0.4,0.2c0.1,0.1,0.2,0.3,0.2,0.4v4.1c0,0.2,0.1,0.3,0.2,0.4c0.1,0.1,0.3,0.2,0.4,0.2
		c0.2,0,0.3-0.1,0.4-0.2s0.2-0.3,0.2-0.4v-4.1c0-0.2,0.1-0.3,0.2-0.4c0.1-0.1,0.3-0.2,0.4-0.2c0.2,0,0.3,0.1,0.4,0.2
		C32.3,26.3,32.4,26.5,32.4,26.6z M40,26.6v16c0,0.3-0.1,0.6-0.4,0.9c-0.3,0.3-0.6,0.4-0.9,0.4h-1.3c-0.3,0-0.6-0.1-0.9-0.4
		c-0.3-0.3-0.4-0.6-0.4-0.9v-5.1H34c-0.1,0-0.2,0-0.2-0.1c-0.1-0.1-0.1-0.1-0.1-0.2v-8c0-0.9,0.3-1.6,0.9-2.3
		c0.6-0.6,1.4-0.9,2.3-0.9h2.6c0.2,0,0.3,0.1,0.4,0.2C40,26.3,40,26.5,40,26.6z"/>
</g>
<g>
	<path d="M270.9,171.4l42.9,17.1v5.7H308c0,0.8-0.3,1.4-0.9,2c-0.6,0.6-1.3,0.8-2.2,0.8h-68.1c-0.8,0-1.6-0.3-2.2-0.8
		c-0.6-0.6-0.9-1.2-0.9-2H228v-5.7L270.9,171.4z M310.6,242.9c0.8,0,1.6,0.3,2.2,0.8s0.9,1.2,0.9,2v5.7H228v-5.7
		c0-0.8,0.3-1.4,0.9-2c0.6-0.6,1.3-0.8,2.2-0.8H310.6z M239.4,200h11.4v34.3h5.7V200H268v34.3h5.7V200h11.4v34.3h5.7V200h11.4v34.3
		h2.6c0.8,0,1.6,0.3,2.2,0.8c0.6,0.6,0.9,1.2,0.9,2v2.9h-74.3v-2.9c0-0.8,0.3-1.4,0.9-2c0.6-0.6,1.3-0.8,2.2-0.8h2.6V200z"/>
</g>
<g>
	<path d="M433.2,185.8c1.2,1.7,1.5,3.6,0.8,5.8L421.7,232c-0.6,1.9-1.7,3.5-3.4,4.8c-1.7,1.3-3.5,1.9-5.5,1.9h-41.2
		c-2.3,0-4.5-0.8-6.6-2.4c-2.1-1.6-3.6-3.5-4.4-5.9c-0.7-2-0.7-3.9-0.1-5.7c0-0.1,0-0.5,0.1-1.2c0.1-0.7,0.1-1.2,0.2-1.7
		c0-0.2,0-0.6-0.1-1s-0.2-0.7-0.1-0.9c0.1-0.3,0.2-0.6,0.4-0.9c0.2-0.3,0.4-0.6,0.7-1c0.3-0.4,0.6-0.8,0.7-1c0.7-1.1,1.4-2.5,2-4.1
		c0.7-1.6,1.1-3,1.3-4.1c0.1-0.3,0.1-0.7,0-1.3c-0.1-0.6-0.1-1,0-1.3c0.1-0.3,0.3-0.7,0.8-1.3c0.4-0.5,0.7-0.8,0.8-1
		c0.6-1.1,1.3-2.4,1.9-4.1c0.6-1.7,1-3,1.1-4c0-0.3,0-0.7-0.1-1.4c-0.1-0.7-0.1-1.1,0-1.3c0.1-0.4,0.4-0.8,1-1.4
		c0.5-0.5,0.9-0.9,1-1c0.6-0.8,1.2-2,1.9-3.8s1.1-3.2,1.2-4.3c0-0.2,0-0.6-0.1-1.1c-0.1-0.5-0.1-0.9-0.1-1.2
		c0.1-0.2,0.2-0.5,0.4-0.8c0.2-0.3,0.5-0.6,0.8-1c0.3-0.4,0.6-0.7,0.8-0.9c0.2-0.4,0.5-0.8,0.7-1.4c0.3-0.6,0.5-1.1,0.7-1.6
		c0.2-0.5,0.4-1,0.7-1.6c0.3-0.6,0.6-1.1,0.9-1.4c0.3-0.4,0.7-0.7,1.2-1s1-0.5,1.6-0.5c0.6,0,1.3,0.1,2.1,0.2l0,0.1
		c1.1-0.3,1.9-0.4,2.3-0.4h34c2.2,0,3.9,0.8,5.1,2.5c1.2,1.7,1.5,3.6,0.8,5.8l-12.2,40.4c-1.1,3.5-2.1,5.8-3.2,6.9
		c-1.1,1-3,1.5-5.7,1.5H367c-0.8,0-1.4,0.2-1.7,0.7c-0.3,0.5-0.3,1.1,0,1.9c0.7,2.1,2.9,3.1,6.4,3.1h41.2c0.9,0,1.7-0.2,2.5-0.7
		c0.8-0.5,1.3-1.1,1.6-1.9l13.4-44.1c0.2-0.7,0.3-1.5,0.2-2.5C431.7,184.3,432.5,184.9,433.2,185.8z M382,197.3
		c-0.1,0.4-0.1,0.7,0.1,1c0.2,0.3,0.5,0.4,0.9,0.4h27.1c0.4,0,0.8-0.1,1.1-0.4c0.4-0.3,0.6-0.6,0.7-1l0.9-2.9c0.1-0.4,0.1-0.7-0.1-1
		c-0.2-0.3-0.5-0.4-0.9-0.4h-27.1c-0.4,0-0.8,0.1-1.1,0.4c-0.4,0.3-0.6,0.6-0.7,1L382,197.3z M385.7,185.9c-0.1,0.4-0.1,0.7,0.1,1
		c0.2,0.3,0.5,0.4,0.9,0.4h27.1c0.4,0,0.8-0.1,1.1-0.4c0.4-0.3,0.6-0.6,0.7-1l0.9-2.9c0.1-0.4,0.1-0.7-0.1-1
		c-0.2-0.3-0.5-0.4-0.9-0.4h-27.1c-0.4,0-0.8,0.1-1.1,0.4c-0.4,0.3-0.6,0.6-0.7,1L385.7,185.9z"/>
</g>
<g>
	<path d="M382,280.1v48.6c0,1.3-0.6,2.1-1.7,2.6c-0.4,0.1-0.8,0.2-1.1,0.2c-0.8,0-1.5-0.3-2-0.8l-18-18v7.4c0,3.5-1.3,6.6-3.8,9.1
		c-2.5,2.5-5.5,3.8-9.1,3.8h-31.4c-3.5,0-6.6-1.3-9.1-3.8c-2.5-2.5-3.8-5.5-3.8-9.1v-31.4c0-3.5,1.3-6.6,3.8-9.1
		c2.5-2.5,5.5-3.8,9.1-3.8h31.4c3.5,0,6.6,1.3,9.1,3.8s3.8,5.5,3.8,9.1v7.4l18-17.9c0.5-0.6,1.2-0.8,2-0.8c0.4,0,0.7,0.1,1.1,0.2
		C381.4,278,382,278.9,382,280.1z"/>
</g>
<g>
	<path class="st4" d="M42-48v6.2c0,0.2-0.1,0.4-0.2,0.5c-0.1,0.1-0.3,0.2-0.5,0.3l-12.5,1.5c0.1,0.5,0.2,0.8,0.2,0.8
		c0,0.1-0.1,0.4-0.3,0.8h11.1c0.2,0,0.4,0.1,0.5,0.2c0.2,0.2,0.2,0.3,0.2,0.5c0,0.2-0.1,0.4-0.2,0.5c-0.2,0.2-0.3,0.2-0.5,0.2H27.4
		c-0.2,0-0.4-0.1-0.5-0.2c-0.2-0.2-0.2-0.3-0.2-0.5c0-0.1,0-0.2,0.1-0.4c0.1-0.2,0.1-0.3,0.2-0.4c0.1-0.1,0.2-0.3,0.3-0.5
		c0.1-0.2,0.2-0.3,0.2-0.4l-2.1-9.9h-2.5c-0.2,0-0.4-0.1-0.5-0.2c-0.2-0.2-0.2-0.3-0.2-0.5c0-0.2,0.1-0.4,0.2-0.5
		c0.2-0.2,0.3-0.2,0.5-0.2h3.1c0.1,0,0.2,0,0.3,0.1s0.2,0.1,0.2,0.2c0.1,0.1,0.1,0.2,0.2,0.3c0,0.1,0.1,0.2,0.1,0.3
		c0,0.1,0,0.2,0.1,0.4c0,0.2,0,0.3,0.1,0.3h14.4c0.2,0,0.4,0.1,0.5,0.2C41.9-48.4,42-48.2,42-48z M29.2-36c0.3,0.3,0.5,0.7,0.5,1.1
		c0,0.4-0.2,0.8-0.5,1.1c-0.3,0.3-0.7,0.5-1.1,0.5c-0.4,0-0.8-0.2-1.1-0.5c-0.3-0.3-0.5-0.7-0.5-1.1c0-0.4,0.2-0.8,0.5-1.1
		c0.3-0.3,0.7-0.5,1.1-0.5C28.6-36.5,28.9-36.3,29.2-36z M40-36c0.3,0.3,0.5,0.7,0.5,1.1c0,0.4-0.2,0.8-0.5,1.1
		c-0.3,0.3-0.7,0.5-1.1,0.5c-0.4,0-0.8-0.2-1.1-0.5c-0.3-0.3-0.5-0.7-0.5-1.1c0-0.4,0.2-0.8,0.5-1.1c0.3-0.3,0.7-0.5,1.1-0.5
		C39.3-36.5,39.7-36.3,40-36z"/>
</g>
</svg>
