<?xml version="1.0" encoding="utf-8"?>
<!-- Generator: Adobe Illustrator 19.1.1, SVG Export Plug-In . SVG Version: 6.00 Build 0)  -->
<svg version="1.1" id="Layer_1" xmlns="http://www.w3.org/2000/svg" xmlns:xlink="http://www.w3.org/1999/xlink" x="0px" y="0px"
	 viewBox="8 14 50 50" style="enable-background:new 8 14 50 50;" xml:space="preserve">
<style type="text/css">
	.st0{fill:#FF4E38;stroke:#B03B2D;stroke-width:2;stroke-miterlimit:10;}
	.st1{fill:#098DA0;}
	.st2{fill:#5DB6C2;}
	.st3{fill:#86C8D1;}
	.st4{fill:#FFFFFF;}
</style>
<path class="st0" d="M50.7,34.4c0,9.8-17.7,27.2-17.7,27.2S15.3,44.2,15.3,34.4S23.2,16.8,33,16.8S50.7,24.7,50.7,34.4z"/>
<g>
	<path class="st1" d="M-58.2,34c0,6.7-5.4,12.1-12.1,12.1S-82.4,40.7-82.4,34s5.4-12.1,12.1-12.1c0.4,0,0.7,0,1.1,0.1
		c-5.1,0.5-9,4.8-9,10c0,5.5,4.5,10,10,10c5.2,0,9.5-4,10-9C-58.2,33.3-58.2,33.6-58.2,34z"/>
	<path class="st2" d="M-63.4,23.5c4.6,2.6,6.1,8.5,3.5,13c-2.6,4.6-8.5,6.1-13,3.5c-4.6-2.6-6.1-8.5-3.5-13c0.1-0.3,0.3-0.5,0.5-0.7
		c-1.7,3.7-0.3,8,3.3,10.1c3.8,2.2,8.6,0.9,10.8-2.9c2-3.5,1-8-2.2-10.4C-63.9,23.2-63.7,23.3-63.4,23.5z"/>
	<path class="st3" d="M-61.6,29.5c0,4-3.2,7.2-7.2,7.2s-7.2-3.2-7.2-7.2s3.2-7.2,7.2-7.2c0.2,0,0.4,0,0.7,0c-3,0.3-5.4,2.9-5.4,6
		c0,3.3,2.7,6,6,6c3.1,0,5.7-2.4,6-5.4C-61.6,29.1-61.6,29.3-61.6,29.5z"/>
</g>
<g>
	<path class="st4" d="M-36.9-39l0.3,2.8c0,0.2,0,0.3-0.1,0.4c-0.1,0.1-0.3,0.2-0.4,0.2h-14.7c-0.2,0-0.3-0.1-0.4-0.2
		c-0.1-0.1-0.2-0.3-0.1-0.4L-52-39H-36.9z M-37.7-46.3l0.8,6.8h-15l0.8-6.8c0-0.1,0.1-0.3,0.2-0.4c0.1-0.1,0.2-0.1,0.4-0.1h2.3v1.1
		c0,0.3,0.1,0.6,0.3,0.8c0.2,0.2,0.5,0.3,0.8,0.3c0.3,0,0.6-0.1,0.8-0.3c0.2-0.2,0.3-0.5,0.3-0.8v-1.1h3.4v1.1
		c0,0.3,0.1,0.6,0.3,0.8c0.2,0.2,0.5,0.3,0.8,0.3c0.3,0,0.6-0.1,0.8-0.3c0.2-0.2,0.3-0.5,0.3-0.8v-1.1h2.3c0.1,0,0.3,0,0.4,0.1
		C-37.8-46.6-37.7-46.5-37.7-46.3z M-41.1-48v2.3c0,0.2-0.1,0.3-0.2,0.4c-0.1,0.1-0.2,0.2-0.4,0.2c-0.2,0-0.3-0.1-0.4-0.2
		c-0.1-0.1-0.2-0.2-0.2-0.4V-48c0-0.6-0.2-1.2-0.7-1.6c-0.4-0.4-1-0.7-1.6-0.7c-0.6,0-1.2,0.2-1.6,0.7c-0.4,0.4-0.7,1-0.7,1.6v2.3
		c0,0.2-0.1,0.3-0.2,0.4c-0.1,0.1-0.2,0.2-0.4,0.2c-0.2,0-0.3-0.1-0.4-0.2c-0.1-0.1-0.2-0.2-0.2-0.4V-48c0-0.9,0.3-1.7,1-2.4
		c0.7-0.7,1.5-1,2.4-1c0.9,0,1.7,0.3,2.4,1C-41.4-49.7-41.1-48.9-41.1-48z"/>
</g>
<g>
	<path class="st4" d="M40.7-69.7v2.1H28.2v-2.1l1.4-2.1h-1.4c-1.2,0-2.1-0.4-3-1.2c-0.8-0.8-1.2-1.8-1.2-3v-3.5l-0.7-0.7l0.3-1.4
		h5.2l0.3-1.4h10.5l0.3,2.1l-0.7,0.3v8.7L40.7-69.7z M29.6-74.6v-4.2h-2.8v2.8c0,0.4,0.1,0.7,0.4,1c0.3,0.3,0.6,0.4,1,0.4H29.6z"/>
</g>
<g>
	<path class="st4" d="M-7.2-86.5v6.4c0,0.4-0.1,0.8-0.4,1.1c-0.2,0.3-0.5,0.6-0.9,0.7v7.8c0,0.3-0.1,0.6-0.4,0.9
		c-0.3,0.3-0.6,0.4-0.9,0.4H-11c-0.3,0-0.6-0.1-0.9-0.4c-0.3-0.3-0.4-0.6-0.4-0.9v-7.8c-0.4-0.1-0.7-0.4-0.9-0.7
		c-0.2-0.3-0.4-0.7-0.4-1.1v-6.4c0-0.2,0.1-0.3,0.2-0.4c0.1-0.1,0.3-0.2,0.4-0.2c0.2,0,0.3,0.1,0.4,0.2c0.1,0.1,0.2,0.3,0.2,0.4v4.1
		c0,0.2,0.1,0.3,0.2,0.4c0.1,0.1,0.3,0.2,0.4,0.2c0.2,0,0.3-0.1,0.4-0.2c0.1-0.1,0.2-0.3,0.2-0.4v-4.1c0-0.2,0.1-0.3,0.2-0.4
		c0.1-0.1,0.3-0.2,0.4-0.2c0.2,0,0.3,0.1,0.4,0.2c0.1,0.1,0.2,0.3,0.2,0.4v4.1c0,0.2,0.1,0.3,0.2,0.4c0.1,0.1,0.3,0.2,0.4,0.2
		c0.2,0,0.3-0.1,0.4-0.2c0.1-0.1,0.2-0.3,0.2-0.4v-4.1c0-0.2,0.1-0.3,0.2-0.4c0.1-0.1,0.3-0.2,0.4-0.2c0.2,0,0.3,0.1,0.4,0.2
		C-7.2-86.8-7.2-86.6-7.2-86.5z M0.5-86.5v16c0,0.3-0.1,0.6-0.4,0.9c-0.3,0.3-0.6,0.4-0.9,0.4h-1.3c-0.3,0-0.6-0.1-0.9-0.4
		c-0.3-0.3-0.4-0.6-0.4-0.9v-5.1h-2.2c-0.1,0-0.2,0-0.2-0.1c-0.1-0.1-0.1-0.1-0.1-0.2v-8c0-0.9,0.3-1.6,0.9-2.3
		c0.6-0.6,1.4-0.9,2.3-0.9h2.6c0.2,0,0.3,0.1,0.4,0.2C0.4-86.8,0.5-86.6,0.5-86.5z"/>
</g>
<g>
	<path class="st4" d="M89.3-29.7l8.3,3.3v1.1h-1.1c0,0.1-0.1,0.3-0.2,0.4c-0.1,0.1-0.3,0.2-0.4,0.2H82.7c-0.2,0-0.3-0.1-0.4-0.2
		c-0.1-0.1-0.2-0.2-0.2-0.4H81v-1.1L89.3-29.7z M97-15.9c0.2,0,0.3,0.1,0.4,0.2c0.1,0.1,0.2,0.2,0.2,0.4v1.1H81v-1.1
		c0-0.1,0.1-0.3,0.2-0.4c0.1-0.1,0.3-0.2,0.4-0.2H97z M83.2-24.2h2.2v6.6h1.1v-6.6h2.2v6.6h1.1v-6.6H92v6.6h1.1v-6.6h2.2v6.6h0.5
		c0.2,0,0.3,0.1,0.4,0.2c0.1,0.1,0.2,0.2,0.2,0.4v0.6H82.1V-17c0-0.1,0.1-0.3,0.2-0.4c0.1-0.1,0.3-0.2,0.4-0.2h0.5V-24.2z"/>
</g>
<g>
	<path class="st4" d="M41.6,29.8c0.3,0.4,0.3,0.9,0.2,1.4l-2.9,9.7c-0.1,0.5-0.4,0.8-0.8,1.1c-0.4,0.3-0.8,0.5-1.3,0.5h-9.8
		c-0.5,0-1.1-0.2-1.6-0.6c-0.5-0.4-0.9-0.8-1.1-1.4c-0.2-0.5-0.2-0.9,0-1.4c0,0,0-0.1,0-0.3c0-0.2,0-0.3,0-0.4c0-0.1,0-0.1,0-0.2
		c0-0.1,0-0.2,0-0.2c0-0.1,0-0.2,0.1-0.2c0-0.1,0.1-0.2,0.2-0.3c0.1-0.1,0.1-0.2,0.2-0.3c0.2-0.3,0.3-0.6,0.5-1
		c0.2-0.4,0.3-0.7,0.3-1c0-0.1,0-0.2,0-0.3c0-0.1,0-0.2,0-0.3c0-0.1,0.1-0.2,0.2-0.3c0.1-0.1,0.2-0.2,0.2-0.2c0.1-0.3,0.3-0.6,0.4-1
		c0.1-0.4,0.2-0.7,0.3-1c0-0.1,0-0.2,0-0.3c0-0.2,0-0.3,0-0.3c0-0.1,0.1-0.2,0.2-0.3C26.9,31.1,27,31,27,31c0.1-0.2,0.3-0.5,0.5-0.9
		c0.2-0.4,0.3-0.8,0.3-1c0-0.1,0-0.1,0-0.3c0-0.1,0-0.2,0-0.3c0-0.1,0-0.1,0.1-0.2c0-0.1,0.1-0.2,0.2-0.2c0.1-0.1,0.1-0.2,0.2-0.2
		c0.1-0.1,0.1-0.2,0.2-0.3c0.1-0.1,0.1-0.3,0.2-0.4c0-0.1,0.1-0.2,0.2-0.4c0.1-0.1,0.1-0.3,0.2-0.3c0.1-0.1,0.2-0.2,0.3-0.3
		c0.1-0.1,0.2-0.1,0.4-0.1c0.1,0,0.3,0,0.5,0.1l0,0c0.3-0.1,0.5-0.1,0.5-0.1h8.1c0.5,0,0.9,0.2,1.2,0.6c0.3,0.4,0.3,0.9,0.2,1.4
		l-2.9,9.7c-0.3,0.8-0.5,1.4-0.8,1.6c-0.3,0.2-0.7,0.4-1.4,0.4h-9.3c-0.2,0-0.3,0.1-0.4,0.2c-0.1,0.1-0.1,0.3,0,0.5
		c0.2,0.5,0.7,0.7,1.5,0.7h9.8c0.2,0,0.4-0.1,0.6-0.2c0.2-0.1,0.3-0.3,0.4-0.4l3.2-10.5c0-0.2,0.1-0.4,0.1-0.6
		C41.2,29.4,41.5,29.6,41.6,29.8z M29.4,32.5c0,0.1,0,0.2,0,0.2c0,0.1,0.1,0.1,0.2,0.1h6.5c0.1,0,0.2,0,0.3-0.1
		c0.1-0.1,0.1-0.1,0.2-0.2l0.2-0.7c0-0.1,0-0.2,0-0.2c0-0.1-0.1-0.1-0.2-0.1H30c-0.1,0-0.2,0-0.3,0.1c-0.1,0.1-0.1,0.1-0.2,0.2
		L29.4,32.5z M30.3,29.8c0,0.1,0,0.2,0,0.2c0,0.1,0.1,0.1,0.2,0.1H37c0.1,0,0.2,0,0.3-0.1c0.1-0.1,0.1-0.1,0.2-0.2l0.2-0.7
		c0-0.1,0-0.2,0-0.2c0-0.1-0.1-0.1-0.2-0.1h-6.5c-0.1,0-0.2,0-0.3,0.1c-0.1,0.1-0.1,0.1-0.2,0.2L30.3,29.8z"/>
</g>
<g>
	<path d="M382,280.1v48.6c0,1.3-0.6,2.1-1.7,2.6c-0.4,0.1-0.8,0.2-1.1,0.2c-0.8,0-1.5-0.3-2-0.8l-18-18v7.4c0,3.5-1.3,6.6-3.8,9.1
		c-2.5,2.5-5.5,3.8-9.1,3.8h-31.4c-3.5,0-6.6-1.3-9.1-3.8c-2.5-2.5-3.8-5.5-3.8-9.1v-31.4c0-3.5,1.3-6.6,3.8-9.1
		c2.5-2.5,5.5-3.8,9.1-3.8h31.4c3.5,0,6.6,1.3,9.1,3.8s3.8,5.5,3.8,9.1v7.4l18-17.9c0.5-0.6,1.2-0.8,2-0.8c0.4,0,0.7,0.1,1.1,0.2
		C381.4,278,382,278.9,382,280.1z"/>
</g>
<g>
	<path class="st4" d="M42-48v6.2c0,0.2-0.1,0.4-0.2,0.5c-0.1,0.1-0.3,0.2-0.5,0.3l-12.5,1.5c0.1,0.5,0.2,0.8,0.2,0.8
		c0,0.1-0.1,0.4-0.3,0.8h11.1c0.2,0,0.4,0.1,0.5,0.2c0.2,0.2,0.2,0.3,0.2,0.5c0,0.2-0.1,0.4-0.2,0.5c-0.2,0.2-0.3,0.2-0.5,0.2H27.4
		c-0.2,0-0.4-0.1-0.5-0.2c-0.2-0.2-0.2-0.3-0.2-0.5c0-0.1,0-0.2,0.1-0.4c0.1-0.2,0.1-0.3,0.2-0.4c0.1-0.1,0.2-0.3,0.3-0.5
		c0.1-0.2,0.2-0.3,0.2-0.4l-2.1-9.9h-2.5c-0.2,0-0.4-0.1-0.5-0.2c-0.2-0.2-0.2-0.3-0.2-0.5c0-0.2,0.1-0.4,0.2-0.5
		c0.2-0.2,0.3-0.2,0.5-0.2h3.1c0.1,0,0.2,0,0.3,0.1s0.2,0.1,0.2,0.2c0.1,0.1,0.1,0.2,0.2,0.3c0,0.1,0.1,0.2,0.1,0.3
		c0,0.1,0,0.2,0.1,0.4c0,0.2,0,0.3,0.1,0.3h14.4c0.2,0,0.4,0.1,0.5,0.2C41.9-48.4,42-48.2,42-48z M29.2-36c0.3,0.3,0.5,0.7,0.5,1.1
		c0,0.4-0.2,0.8-0.5,1.1c-0.3,0.3-0.7,0.5-1.1,0.5c-0.4,0-0.8-0.2-1.1-0.5c-0.3-0.3-0.5-0.7-0.5-1.1c0-0.4,0.2-0.8,0.5-1.1
		c0.3-0.3,0.7-0.5,1.1-0.5C28.6-36.5,28.9-36.3,29.2-36z M40-36c0.3,0.3,0.5,0.7,0.5,1.1c0,0.4-0.2,0.8-0.5,1.1
		c-0.3,0.3-0.7,0.5-1.1,0.5c-0.4,0-0.8-0.2-1.1-0.5c-0.3-0.3-0.5-0.7-0.5-1.1c0-0.4,0.2-0.8,0.5-1.1c0.3-0.3,0.7-0.5,1.1-0.5
		C39.3-36.5,39.7-36.3,40-36z"/>
</g>
</svg>
